<?xml version="1.0" encoding="UTF-8"?>
<!-- Generator: Adobe Illustrator 19.1.0, SVG Export Plug-In . SVG Version: 6.00 Build 0)  -->
<svg version="1.1" xmlns="http://www.w3.org/2000/svg" xmlns:xlink="http://www.w3.org/1999/xlink" x="0px" y="0px" viewBox="0 0 512 512" style="enable-background:new 0 0 512 512;" xml:space="preserve">
<style type="text/css">
	.st0{display:none;}
	.st1{display:inline;}
	.st2{fill:none;stroke:#676767;stroke-linecap:round;stroke-linejoin:round;}
	.st3{fill:#546670;}
	.st4{fill:#9BD7EB;}
	.st5{clip-path:url(#SVGID_2_);}
	.st6{fill:#CCE3C4;}
	.st7{opacity:0.5;}
	.st8{fill:#9DC13C;}
	.st9{opacity:0.2;fill:#1F4C4C;}
	.st10{fill:#FFFFFF;}
</style>
<g id="Layer_1" class="st0">
	<g transform="matrix( 1, 0, 0, 1, 0,0) " class="st1">
		<g>
			<path id="Layer10_0_1_STROKES" class="st2" d="M56,96h400c11,0,20.4,3.9,28.3,11.7c7.8,7.8,11.8,17.3,11.8,28.3v240     c0,11-3.9,20.4-11.8,28.3C476.4,412.1,467,416,456,416H56c-11,0-20.5-3.9-28.3-11.8C19.9,396.4,16,387,16,376V136     c0-11,3.9-20.5,11.7-28.3C35.5,99.9,45,96,56,96z"/>
		</g>
	</g>
	<g transform="matrix( 1, 0, 0, 1, 0,0) " class="st1">
		<g>
			<path id="Layer9_0_1_STROKES" class="st2" d="M136,16h240c11,0,20.4,3.9,28.3,11.7C412.1,35.5,416,45,416,56v400     c0,11-3.9,20.4-11.8,28.3C396.4,492.1,387,496,376,496H136c-11,0-20.5-3.9-28.3-11.8C99.9,476.4,96,467,96,456V56     c0-11,3.9-20.5,11.7-28.3C115.5,19.9,125,16,136,16z"/>
		</g>
	</g>
	<g transform="matrix( 1, 0, 0, 1, 0,0) " class="st1">
		<g>
			<path id="Layer8_0_1_STROKES" class="st2" d="M96,56h320c11,0,20.4,3.9,28.3,11.7C452.1,75.5,456,85,456,96v320     c0,11-3.9,20.4-11.8,28.3C436.4,452.1,427,456,416,456H96c-11,0-20.5-3.9-28.3-11.8C59.9,436.4,56,427,56,416V96     c0-11,3.9-20.5,11.7-28.3C75.5,59.9,85,56,96,56z"/>
		</g>
	</g>
	<g transform="matrix( 1, 0, 0, 1, 0,0) " class="st1">
		<g>
			<path id="Layer7_0_1_STROKES" class="st2" d="M376,256c0,33.1-11.7,61.4-35.1,84.8C317.4,364.3,289.1,376,256,376     s-61.4-11.7-84.9-35.2C147.7,317.4,136,289.1,136,256s11.7-61.4,35.1-84.8c23.5-23.5,51.8-35.2,84.9-35.2s61.4,11.7,84.9,35.2     C364.3,194.6,376,222.9,376,256z"/>
		</g>
	</g>
	<g transform="matrix( 1, 0, 0, 1, 0,0) " class="st1">
		<g>
			<path id="Layer6_0_1_STROKES" class="st2" d="M496,256c0,66.2-23.4,122.7-70.3,169.6C378.7,472.5,322.2,496,256,496     c-66.2,0-122.8-23.5-169.7-70.4C39.4,378.7,16,322.2,16,256S39.4,133.3,86.3,86.4C133.2,39.5,189.8,16,256,16     c66.2,0,122.7,23.5,169.7,70.4C472.6,133.3,496,189.8,496,256z"/>
		</g>
	</g>
	<g transform="matrix( 1, 0, 0, 1, 0,0) " class="st1">
		<g>
			<path id="Layer5_0_1_STROKES" class="st2" d="M336,0v176h176 M512,256H336v80h176 M336,176v80h-80v80h80v176 M0,176h176V0 M256,0     v176h80 M176,176h80v80h-80v80h80v176 M0,256h176v-80 M176,512V336H0"/>
		</g>
	</g>
	<g transform="matrix( 1, 0, 0, 1, 0,0) " class="st1">
		<g>
			<path id="Layer3_0_1_STROKES" class="st2" d="M0,0l256,256L512,0 M512,512L256,256L0,512"/>
		</g>
	</g>
</g>
<g id="Layer_3">
	<circle class="st3" cx="256" cy="256" r="240"/>
</g>
<g id="Globe">
	<g>
		<g>
			<g>
				<circle class="st4" cx="255.8" cy="256" r="160"/>
			</g>
			<g>
				<defs>
					<circle id="SVGID_1_" cx="255.1" cy="255.4" r="153"/>
				</defs>
				<clipPath id="SVGID_2_">
					<use xlink:href="#SVGID_1_" style="overflow:visible;"/>
				</clipPath>
				<g class="st5">
					<g>
						<path class="st6" d="M565.8,198.3c1.9,1.1,4,1.8,5.5,3.2c3.9,3.9,7.6,8.1,11.2,12.3c1.6,1.9,3,2.1,4.5,0.1        c2.4-3.2,4.4-6.7,7-9.7c4.9-5.6,4.7-13.6-1.3-18c-5.4-3.9-11.1-7.6-16.7-11.3c-1.9-1.3-3.2-2.5,0-3.6c1-0.4,1.9-1.1,2.9-1.2        c7.3-0.6,14.6-1.3,21.9-1.7c5-0.2,9.6-1.6,12.4-5.6c3.6-5.2,6.6-10.8,9.4-16.5c1.4-2.9-0.7-7.1-3.6-8.2        c-2.7-1-5.6-1.8-8.4-1.9c-8.3-0.3-16.6-0.1-25-0.3c-4-0.1-8-1-11.9-0.9c-7.1,0-14.1,0.7-21.1,0.7c-8.4,0-16.8-0.1-25.1-0.9        c-6-0.6-11.9-2.5-17.9-3.4c-9.4-1.3-19-1-28-4.8c-2.1-0.9-4.9-1.7-6.8-0.9c-6.1,2.4-12.3,5-17.9,8.5c-9.8,6-19.9,10-31.6,8.8        c-5.4-0.6-10.8-1-16.2-1.8c-5.7-0.9-11.4-2.5-17.1-3.2c-10.8-1.4-19.8,3.9-28.5,9.1c-3.7,2.2-4,4.8-1.8,8.6        c1.8,3.2,3.6,6.3,5.3,9.5c2.2,3.9,3.9,4.2,7.9,2.4c4.5-2,9.2-3.7,13.8-5.2c3-1,4.8,1.1,5.2,3.6c1.2,6.2-2.6,10.5-9,10.6        c-12.7,0-25.5-0.1-38.2-0.1c-2,0-4.1,0.6-5.9,1.3c-2.6,1-5.1,2.6-7.7,3.6c-3,1.1-5.4,2.6-5,6.1c0.4,3.5,1,7,1.9,10.4        c2.3,8.9,8.4,12.3,16.6,8.9c7.6-3.1,14.9-7.1,22.5-10.4c2.4-1,5.6-2.2,7.7-1.4c6.6,2.8,13.3,4.3,20.4,4.2        c4,0,8.1-0.2,12.1,0.1c5.2,0.3,7.2,4.3,4.3,8.6c-0.8,1.3-2,2.3-3.2,3.4c-7,6.6-14.5,12.3-25.1,10.5        c-5.2-0.9-10.4-1.9-15.4-3.6c-9.8-3.2-19.7-5.2-30.1-4.4c-5.8,0.5-10.5,3.3-14.2,7.5c-4.2,4.7-7.7,10-11.9,14.7        c-10.6,11.9-10.1,15.4,0.6,25.9c8.2,8.1,17.6,14.6,29.3,16.5c6.3,1,12.7,1.4,19,1.8c2.5,0.2,3.6,0.7,3.2,3.6        c-0.8,4.8-1.7,9.8-1.7,14.7c0,8.1,0.8,16.2,1.3,24.3c0.4,6.6,3.6,11.8,8.1,16.4c3.8,3.9,7.3,8,10.8,12.1        c1.7,1.9,3.1,4.1,4.7,6.1c1.7,2,4,2.3,5.8,0.5c3.8-3.9,8.5-7.5,10.8-12.2c6.1-12.6,11.5-25.5,16.2-38.6        c3.9-11,9.5-19.8,19.9-25.7c5.2-2.9,9.8-7,14.3-11c3.6-3.2,3.1-4.9-1.2-6.8c-1.6-0.7-3.3-1-4.7-1.9        c-13.2-7.5-24.2-17.5-33.7-29.1c-1.5-1.8-1.9-4.4-2.9-6.8c5-1.6,6.8,1.4,8.1,3.9c5.9,11.2,15.5,17.4,27.2,20.8        c3.5,1,7,0.5,9.6-2.7c4.5-5.4,4.3-7.6-0.1-12.9c-4.3-5.1-8-10.7-11.9-16.1c0-0.1,0.1-0.2,0.3-0.9c3.8,1.4,7.8,2.5,11.5,4.1        c6.8,2.9,13.9,5.3,18.8,11.3c5.1,6.4,10,12.8,14.9,19.3c2,2.7,3.4,5.9,5.8,8.2c1.2,1.2,4,1.8,5.7,1.3c1.6-0.4,3.4-2.4,3.9-4.1        c1-3.9,1.4-8.1,1.9-12.2c1.2-11.3,8.3-15,18-8.8c3.4,2.2,6.4,5.2,9.6,7.9c5.2,4.3,9.9,9.4,15.6,12.9c8,4.8,9.6,4.1,14.8-1.9        c4.1-4.8,4.3-7.8,0.9-12.9c-1.2-1.7-2.3-3.4-3.5-5.1c-3.7-5.6-4.9-11.7-3.5-18.1C561.8,212.9,563.7,206.3,565.8,198.3z"/>
					</g>
					<g>
						<path class="st6" d="M160.5,233.3c8.4-0.6,16.3-1.2,24.3-1.8c6.5-0.5,11.6-3.4,14.8-9.2c1.7-3,3.5-6,5.7-8.7        c7.9-9.5,17.6-15.5,30.5-14.5c6.8,0.5,12-2.4,15.5-8c2.2-3.5,4.3-7.1,5.6-11c2.9-8.9,0.7-13.5-7.8-18.2        c-1.7-0.9-3.5-2.3-5.3-2.3c-6.2-0.3-12.6-0.9-18.7,0.1c-4.3,0.7-6.5,1.2-9-2.5c-1.8-2.8-1.2-5.3,1.1-7.7        c0.7-0.7,1-3.1,0.9-3.1c-4.4-1.7-7.1-5.2-9.7-8.8c-0.4-0.5-1.1-0.9-1.7-0.9c-9.9-0.3-19.7-1.5-28.9,5.1        c-8.9,6.4-19.3,7-29.4,1.3c-6.5-3.7-12.2-8.7-19.8-10.5c-7.8-1.8-14.9-1.7-21.7,3.4c-6.4,4.8-13,9.5-20.1,13        c-5.2,2.6-4.8,8.8-1.1,11.4c7.3,5.1,15.1,8.9,24.4,8.3c4.9-0.4,9.8-1.3,14.7-1.3c1.7,0,4.5,1.5,4.8,2.8c0.5,2.2,0,5-0.9,7.1        c-1.8,4.2-4.2,8.3-6.5,12.3c-4.8,8.7-8.3,17.6-6.9,27.9c0.6,4.5-0.1,9.1,0.3,13.7c0.4,5.6,1.7,11.4,6.8,14.2        c5.7,3.1,12.1,4.1,18.8,3.1c7.8-1.2,15.7-1.9,22.8,2.5c6.4,4,9.2,10.8,12.5,17.2c2.9,5.5,2.3,10.1-2.9,13.9        c-0.9,0.6-1.3,1.9-2,2.8c-2.3,2.6-1.1,4.4,1.4,6c5.1,3.3,10.3,6.5,15.3,9.9c5.7,3.8,10.5,8.8,12.2,15.5        c3.4,13,2,26.2,0.8,39.4c-0.8,8.6,0.6,16.7,5.6,24c4.8,7,11.7,11.1,19.3,14.1c8.5,3.4,14.4-0.6,16.9-7        c2.5-6.6,4.1-13.5,5.9-20.3c1.6-6.2,3.8-11.9,9.1-16.2c3.2-2.5,6.3-5.6,8.3-9.1c7.3-13,10.1-27.5,11.7-42.2        c0.3-2.5,0.6-5,1.1-7.5c1.2-5.6-1.2-11.7-5.8-13.2c-6.1-2-12.5-3.2-18.6-5.1c-5.3-1.7-10.6-3.4-15.6-5.9        c-6-3-11.2-7.8-17.4-9.9c-10.8-3.6-22.2-5.4-33.2-8.4c-6.9-1.9-13.8-4-20.3-6.9C164.8,240.6,160.8,238.2,160.5,233.3z"/>
					</g>
					<g>
						<path class="st6" d="M259,130.5c1.3,2.1,2.2,3.3,2.8,4.6c1.8,3.5,3.5,7.1,5.1,10.7c1.3,2.8,1,6.7,4.5,7.8        c6.2,2,12.8,1.8,18.7-0.4c7.6-2.8,14.9-6.7,22.2-10.6c5.7-3.1,11.6-6.3,14.9-12.5c1-2,1.7-3.5-0.6-5.4        c-8-6.7-16.9-12-27.1-13.9c-12.3-2.2-23.9,0.5-33.1,9.6C263.6,123.3,261.6,127,259,130.5z"/>
					</g>
					<g class="st7">
						<path class="st8" d="M565.8,198.3c-2.1,8-4,14.6-5.5,21.3c-1.4,6.4-0.1,12.6,3.5,18.1c1.1,1.7,2.3,3.4,3.5,5.1        c3.5,5.1,3.3,8.1-0.9,12.9c-5.2,6.1-6.8,6.8-14.8,1.9c-5.7-3.5-10.4-8.5-15.6-12.9c-3.2-2.7-6.1-5.7-9.6-7.9        c-9.7-6.2-16.8-2.6-18,8.8c-0.4,4.1-0.8,8.2-1.9,12.2c-0.4,1.7-2.3,3.7-3.9,4.1c-1.7,0.5-4.5-0.1-5.7-1.3        c-2.3-2.3-3.8-5.5-5.8-8.2c-4.9-6.5-9.8-13-14.9-19.3c-4.8-6.1-12-8.4-18.8-11.3c-3.7-1.6-7.7-2.8-11.5-4.1        c-0.3,0.7-0.4,0.9-0.3,0.9c3.9,5.4,7.7,11,11.9,16.1c4.4,5.2,4.5,7.5,0.1,12.9c-2.7,3.2-6.1,3.7-9.6,2.7        c-11.7-3.4-21.3-9.6-27.2-20.8c-1.3-2.5-3.1-5.5-8.1-3.9c1,2.3,1.4,5,2.9,6.8c9.5,11.6,20.6,21.7,33.7,29.1        c1.5,0.8,3.2,1.2,4.7,1.9c4.3,1.8,4.8,3.5,1.2,6.8c-4.5,4-9.1,8-14.3,11c-10.4,5.9-16,14.8-19.9,25.7        c-4.7,13.1-10.2,26-16.2,38.6c-2.3,4.7-7,8.3-10.8,12.2c-1.8,1.9-4.1,1.6-5.8-0.5c-1.6-2-3-4.1-4.7-6.1        c-3.5-4.1-7-8.2-10.8-12.1c-4.5-4.6-7.7-9.8-8.1-16.4c-0.5-8.1-1.2-16.2-1.3-24.3c0-4.9,0.9-9.8,1.7-14.7        c0.5-2.9-0.7-3.4-3.2-3.6c-6.4-0.4-12.7-0.8-19-1.8c-11.7-1.9-21-8.4-29.3-16.5c-10.7-10.4-11.2-14-0.6-25.9        c4.2-4.7,7.7-10,11.9-14.7c3.7-4.2,8.4-7,14.2-7.5c10.4-0.9,20.3,1.2,30.1,4.4c5,1.6,10.2,2.6,15.4,3.6        c10.5,1.9,18-3.8,25.1-10.5c1.1-1.1,2.3-2.1,3.2-3.4c2.8-4.2,0.9-8.2-4.3-8.6c-4-0.3-8-0.1-12.1-0.1        c-7.1,0.1-13.8-1.4-20.4-4.2c-2-0.9-5.3,0.3-7.7,1.4c-7.6,3.3-14.8,7.3-22.5,10.4c-8.3,3.4-14.3,0-16.6-8.9        c-0.9-3.4-1.5-6.9-1.9-10.4c-0.4-3.5,2-5,5-6.1c2.7-1,5.1-2.6,7.7-3.6c1.9-0.7,3.9-1.3,5.9-1.3c12.7-0.1,25.5,0.1,38.2,0.1        c6.5,0,10.3-4.4,9-10.6c-0.5-2.4-2.2-4.6-5.2-3.6c-4.7,1.6-9.3,3.2-13.8,5.2c-4,1.8-5.7,1.5-7.9-2.4c-1.8-3.2-3.6-6.3-5.3-9.5        c-2.1-3.8-1.9-6.4,1.8-8.6c8.8-5.2,17.7-10.5,28.5-9.1c5.8,0.7,11.4,2.3,17.1,3.2c5.4,0.8,10.8,1.3,16.2,1.8        c11.7,1.2,21.8-2.7,31.6-8.8c5.6-3.5,11.8-6.1,17.9-8.5c1.9-0.7,4.7,0.1,6.8,0.9c9,3.8,18.6,3.5,28,4.8        c6,0.8,11.9,2.8,17.9,3.4c8.3,0.8,16.7,0.9,25.1,0.9c7,0,14.1-0.7,21.1-0.7c4,0,8,0.8,11.9,0.9c8.3,0.2,16.6,0,25,0.3        c2.8,0.1,5.7,0.9,8.4,1.9c3,1.1,5,5.3,3.6,8.2c-2.8,5.7-5.8,11.3-9.4,16.5c-2.8,4-7.4,5.4-12.4,5.6c-7.3,0.4-14.6,1-21.9,1.7        c-1,0.1-1.9,0.8-2.9,1.2c-3.2,1.2-2,2.4,0,3.6c5.6,3.7,11.2,7.3,16.7,11.3c6,4.4,6.2,12.4,1.3,18c-2.6,3-4.6,6.5-7,9.7        c-1.5,2-2.9,1.8-4.5-0.1c-3.6-4.2-7.3-8.4-11.2-12.3C569.9,200.1,567.7,199.4,565.8,198.3z"/>
					</g>
					<g class="st7">
						<path class="st8" d="M160.5,233.3c0.3,4.9,4.3,7.3,7.8,8.9c6.5,2.9,13.4,5,20.3,6.9c11,3,22.4,4.8,33.2,8.4        c6.2,2.1,11.4,6.9,17.4,9.9c4.9,2.5,10.3,4.2,15.6,5.9c6.1,1.9,12.5,3.1,18.6,5.1c4.7,1.5,7,7.6,5.8,13.2        c-0.5,2.5-0.8,5-1.1,7.5c-1.6,14.7-4.3,29.1-11.7,42.2c-2,3.5-5.1,6.6-8.3,9.1c-5.3,4.2-7.5,9.9-9.1,16.2        c-1.8,6.8-3.4,13.7-5.9,20.3c-2.4,6.4-8.4,10.4-16.9,7c-7.6-3.1-14.5-7.1-19.3-14.1c-5-7.3-6.4-15.4-5.6-24        c1.2-13.2,2.6-26.4-0.8-39.4c-1.7-6.7-6.5-11.7-12.2-15.5c-5.1-3.4-10.2-6.6-15.3-9.9c-2.4-1.6-3.6-3.4-1.4-6        c0.8-0.9,1.1-2.2,2-2.8c5.2-3.8,5.8-8.4,2.9-13.9c-3.3-6.4-6.1-13.2-12.5-17.2c-7.1-4.4-15.1-3.7-22.8-2.5        c-6.7,1-13.2,0-18.8-3.1c-5.1-2.9-6.4-8.7-6.8-14.2c-0.4-4.5,0.3-9.2-0.3-13.7c-1.4-10.3,2.1-19.2,6.9-27.9        c2.3-4.1,4.6-8.1,6.5-12.3c0.9-2.2,1.5-4.9,0.9-7.1c-0.3-1.3-3.1-2.8-4.8-2.8c-4.9,0.1-9.8,1-14.7,1.3        c-9.3,0.7-17.1-3.2-24.4-8.3c-3.8-2.6-4.1-8.8,1.1-11.4c7.1-3.5,13.7-8.2,20.1-13c6.8-5.1,13.9-5.2,21.7-3.4        c7.6,1.8,13.3,6.8,19.8,10.5c10,5.7,20.5,5.1,29.4-1.3c9.2-6.6,18.9-5.4,28.9-5.1c0.6,0,1.4,0.4,1.7,0.9        c2.7,3.6,5.3,7.1,9.7,8.8c0.1,0-0.2,2.4-0.9,3.1c-2.3,2.4-2.9,5-1.1,7.7c2.5,3.7,4.7,3.2,9,2.5c6.1-1,12.4-0.4,18.7-0.1        c1.8,0.1,3.6,1.4,5.3,2.3c8.5,4.7,10.7,9.3,7.8,18.2c-1.3,3.9-3.4,7.5-5.6,11c-3.5,5.6-8.7,8.5-15.5,8        c-12.9-1-22.6,5-30.5,14.5c-2.2,2.7-4,5.7-5.7,8.7c-3.3,5.8-8.3,8.7-14.8,9.2C176.9,232.1,168.9,232.7,160.5,233.3z"/>
					</g>
					<g>
						<path class="st8" d="M259,130.5c2.5-3.5,4.5-7.2,7.4-10c9.2-9.1,20.8-11.9,33.1-9.6c10.2,1.8,19.1,7.2,27.1,13.9        c2.3,1.9,1.6,3.4,0.6,5.4c-3.3,6.2-9.1,9.4-14.9,12.5c-7.2,3.9-14.5,7.8-22.2,10.6c-5.9,2.2-12.5,2.4-18.7,0.4        c-3.5-1.1-3.2-5.1-4.5-7.8c-1.6-3.6-3.3-7.2-5.1-10.7C261.2,133.8,260.3,132.6,259,130.5z"/>
					</g>
				</g>
			</g>
		</g>
		<path class="st9" d="M415.8,258.2c0.4-91.9-69.4-162.1-161.7-162.1c0,150.7,0,168.3,0,319.7C343.4,415.8,415.4,347.8,415.8,258.2z    "/>
	</g>
</g>
<g id="curr">
	<g>
		<g>
			<path class="st10" d="M155,221.6c-18.5-0.4-35.7-6.7-43.9-11.9l3.4-12.7c7.9,5,23.6,11.7,40.5,12.1v-52.2l-15.9-4     c-18.9-4.6-30.2-15.3-30.2-32.4c0-18.5,14.5-35.5,46-37.5V67h9.1v15.9c17.3,0.6,33.7,5.8,43.3,10.9l-4.4,12.7     c-8.3-5.4-24.4-10.3-38.9-10.9v50l9.1,2.2c23.2,5.8,36.5,15.1,36.5,33.9c0,22.4-18.5,37.3-45.7,39.5v24H155V221.6z M144.5,140.6     l10.5,2.6V95.6c-22.2,1.6-32.2,12.5-32.2,24.2C122.9,130.9,130.6,137.3,144.5,140.6z M164.2,159.1v49.6c19.1-2,31.6-11.5,31.6-26     c0-11.9-9.5-18.5-27.8-22.8L164.2,159.1z"/>
		</g>
		<g>
			<path class="st10" d="M398.7,311c-9.3-8.5-20.6-13.5-32.2-13.5c-20.6,0-35.3,13.5-39.1,41.5h58.4l-4.4,9.1h-54.8     c-0.2,2.2-0.2,4.4-0.2,6.5c0,2.8,0,5.6,0.2,8.1H375l-3.8,8.9h-43.7c4.2,26.6,18.5,39.5,38.5,39.5c14.5,0,25.2-5.4,33.3-11.7     l5.4,11.1c-10.3,7.9-23.6,13.3-39.5,13.3c-27.4,0-46.6-18.1-51.4-52.2h-11.1v-8.9h10.1c-0.2-2.6-0.2-5.4-0.2-8.1     c0-2.2,0-4.4,0.2-6.5h-10.1V339h10.7c4.4-35.3,24-54,52-54c17.1,0,28.6,6.9,38.3,15.5L398.7,311z"/>
		</g>
	</g>
</g>
<g id="Layer_5">
	<path class="st10" d="M190.4,394.3c-47.9-22.5-82.2-68.8-87.5-123.7H81C88.5,360.4,163.9,431,256.1,431l9.7-0.4L209.9,375   C209.9,375,190.4,394.3,190.4,394.3z M256.1,81l-9.7,0.4l55.8,55.6l19.5-19.4c47.9,22.6,82.2,68.8,87.3,123.7h22   C423.7,151.6,348.2,81,256.1,81z"/>
</g>
</svg>