<?xml version="1.0" encoding="UTF-8"?>
<!-- Generator: Adobe Illustrator 21.0.2, SVG Export Plug-In . SVG Version: 6.00 Build 0)  -->
<!DOCTYPE svg PUBLIC "-//W3C//DTD SVG 1.1//EN" "http://www.w3.org/Graphics/SVG/1.1/DTD/svg11.dtd">
<svg version="1.1" id="Layer_1" xmlns="http://www.w3.org/2000/svg" xmlns:xlink="http://www.w3.org/1999/xlink" x="0px" y="0px" viewBox="0 0 191.5 191.5" style="enable-background:new 0 0 191.5 191.5;" xml:space="preserve">
<style type="text/css">
	.st0{fill:#99CC33;}
</style>
<circle class="st0" cx="103.8" cy="112.2" r="2.5"/>
<circle class="st0" cx="89.7" cy="112.2" r="2.5"/>
<g>
	<path class="st0" d="M95.7,191.5C42.9,191.5,0,148.5,0,95.7S42.9,0,95.7,0s95.7,42.9,95.7,95.7S148.5,191.5,95.7,191.5z M95.7,5.2   C45.8,5.2,5.2,45.8,5.2,95.7c0,49.9,40.6,90.6,90.6,90.6s90.6-40.6,90.6-90.6C186.3,45.8,145.7,5.2,95.7,5.2z"/>
</g>
<g>
	<path class="st0" d="M112,43.7l0.8,0.8c0.2,0.3,0.5,0.5,0.7,0.6c10,8.4,20.1,16.6,30.3,24.9c0.1,0.1,0.2,0.1,0.3,0.2V78   c-3-2.5-5.8-4.8-8.5-7.1c-7.4-6.1-14.7-12.2-22-18.4c-1.2-1-2-1-3.2-0.1c-11.2,8.4-22.5,16.7-33.7,25v-7.7   c10.1-7.6,20-15.4,30.3-22.7c0.4-0.3,2.6-2.2,3.6-3.3C110.5,43.8,111.2,43.5,112,43.7z"/>
	<path class="st0" d="M137.2,79.2h2.4v-4.3h-2.9c-0.9-0.4-1.8-0.9-2.5-1.5c-7.2-5.5-14.3-11.1-21.4-16.7c-1.2-1-2-1-3.3-0.1   c-6.6,5-13.3,9.9-20,14.7c-1.7,1.3-3.3,3-5.4,3.5h-3.4v4.3h3.2v43h-3.3v0c-1.3,0.1-2.4,0.1-3.7,0.2c-0.1,1.5-0.2,3-0.3,4.4   c0-0.3-4.2-1.2-4.6-1.3c-0.6-0.2-1.7-0.2-2.2-0.6c-1-0.7-0.4-2.7,0-3.7c0.3-0.7,0.5-1.9,1.1-2.4c0.6-0.4,1-0.2,1.7-0.1   c1.4,0.1,2.7-0.2,3.2-1.7c0.3-0.9,0.2-2.3-0.5-3.1c-0.7-0.8-2.2-1.7-3.2-2c-0.7-0.2-1.4,0.1-2.1-0.1c-0.6-0.2-1.1-0.7-1.7-0.9   c-1-0.2-1.7,0.1-2.5,0.5c-1.5,0.7-3.7,1.4-4.9,2.6c-1,1-0.4,2.6,0.2,3.7c0.6,1.1,1.9,1.6,3,1.8c1,0.1,2.8-0.3,3.2,1.1   c0.2,0.7-0.2,3-0.5,3.7c-0.7,1.5-4.1,1.1-5.5,1.2c0.1-0.6,0.2-1.1,0.3-1.7c-0.7,0.8-2.2,1.3-3.2,1.6c-0.6-1.6-0.5-3.8-0.6-5.4   c-0.2-3.2-0.2-6.3-0.5-9.5c-0.3-3.3-0.9-6.5-1.1-9.8c-0.1-2-0.2-5.5,2.7-5.3c1.5,0.1,2.9,0.8,4.4,1.1c1.6,0.3,3.3,0.5,4.9,0.3   c2.3-0.2,4.6-0.6,6.9-1.1c1.5-0.3,2-0.9,2.7-2.3c1-2,1.7-4,1.1-6.2c-1.3-4.7-4-9.6-8.2-12.4c-2.4-1.5-4.7,0-7.2-0.7   c-1.3-0.3-2-1.4-3.4-1.2c-1.3,0.2-2.3,1.1-3.5,1.6c-0.6,0.2-1.4,0.6-2.1,0.5c-1,0-1.8-0.8-2.7-0.9c-1.3-0.2-2.5,0.4-3.5,1   c-0.6,0.4-1.3,0.4-1.9,0.8c-1.5,1.2-3.9,0.2-4.2,2.7c0-0.1-2.4,0.3-2.7,0.4c-0.8,0.4-1.3,1.2-1.6,2c-0.2,0.5-0.2,1.4-0.6,1.8   c-0.8,0.7-1.8-0.3-2.6,0.3c-0.8,0.6-0.8,2-1.3,2.8c-0.9,1.5-2.3,2.8-2.8,4.5c-0.4,1.4,0.2,3.3,0.8,4.5c0.6,1.3,2.2,1.9,3.5,2.3   c2,0.7,3.2,0.1,5.1-0.2c1.1-0.2,2.3,0,3.4-0.3c0.7-0.1,1.2-0.7,1.9-0.9c0.5-0.1,1,0,1.5,0.2c0.4,0.1,0.8,0.2,1.1,0.3   c1,0.2,2,0.1,2.9,0.1c2,0,3.2-0.6,3.4,1.7c0.2,2.3-0.1,4.5-0.2,6.8c-0.2,3.6,0,7.1,0,10.7c0,0.9,0.3,9.8-0.6,9.8   c-0.2,0-0.3,0-0.5,0c-0.4-0.7-0.7-1.3-1.3-2.3v2.4c-1-0.8-1.8-1.4-3-2.3c0.7,1.5,1.2,2.6,1.8,3.9c-1.8,0.1-3.3,0.2-4.7,0.3v2.4   h34.7v0h3.3v0h53.3v0h2.9v-7.7h-2.9V79.2z M87.2,105.7v-9H97v9H87.2z M100.4,87.3h21.1l0.1,28.5h-21.1L100.4,87.3z M124.2,105.7v-9   h9.8v9H124.2z"/>
</g>
</svg>