<?xml version="1.0" encoding="UTF-8" standalone="no"?>
<!-- Created with Inkscape (http://www.inkscape.org/) -->

<svg
   xmlns:dc="http://purl.org/dc/elements/1.1/"
   xmlns:cc="http://creativecommons.org/ns#"
   xmlns:rdf="http://www.w3.org/1999/02/22-rdf-syntax-ns#"
   xmlns:svg="http://www.w3.org/2000/svg"
   xmlns="http://www.w3.org/2000/svg"
   xmlns:sodipodi="http://sodipodi.sourceforge.net/DTD/sodipodi-0.dtd"
   xmlns:inkscape="http://www.inkscape.org/namespaces/inkscape"
   width="600"
   height="150"
   id="svg2"
   version="1.1"
   inkscape:version="0.48.4 r9939"
   sodipodi:docname="рисунок.svg"
   inkscape:export-filename="/home/kuzya/рисунок1.svg.png"
   inkscape:export-xdpi="90"
   inkscape:export-ydpi="90">
  <defs
     id="defs4">
    <inkscape:perspective
       id="perspective3001"
       inkscape:persp3d-origin="367.80662 : 350.254 : 1"
       inkscape:vp_z="666.01849 : 332.37351 : 1"
       inkscape:vp_y="9.6260798 : 999.95367 : 0"
       inkscape:vp_x="-283.45464 : 682.10637 : 1"
       sodipodi:type="inkscape:persp3d" />
  </defs>
  <sodipodi:namedview
     id="base"
     pagecolor="#ffffff"
     bordercolor="#666666"
     borderopacity="1.0"
     inkscape:pageopacity="0.0"
     inkscape:pageshadow="2"
     inkscape:zoom="1.4"
     inkscape:cx="321.89816"
     inkscape:cy="72.702906"
     inkscape:document-units="px"
     inkscape:current-layer="layer1"
     showgrid="false"
     showguides="true"
     inkscape:guide-bbox="true"
     width="100px"
     showborder="false"
     inkscape:window-width="1625"
     inkscape:window-height="1029"
     inkscape:window-x="55"
     inkscape:window-y="21"
     inkscape:window-maximized="1" />
  <metadata
     id="metadata7">
    <rdf:RDF>
      <cc:Work
         rdf:about="">
        <dc:format>image/svg+xml</dc:format>
        <dc:type
           rdf:resource="http://purl.org/dc/dcmitype/StillImage" />
        <dc:title></dc:title>
      </cc:Work>
    </rdf:RDF>
  </metadata>
  <g
     inkscape:label="Layer 1"
     inkscape:groupmode="layer"
     id="layer1"
     transform="translate(0,-902.36218)">
    <flowRoot
       xml:space="preserve"
       id="flowRoot4008"
       style="font-size:40px;font-style:normal;font-weight:normal;line-height:125%;letter-spacing:0px;word-spacing:0px;fill:#000000;fill-opacity:1;stroke:none;font-family:Sans"
       transform="translate(-2.2450457,899.76915)"><flowRegion
         id="flowRegion4010"><rect
           id="rect4012"
           width="359.28571"
           height="122.85714"
           x="368.57144"
           y="248.79076" /></flowRegion><flowPara
         id="flowPara4014"
         style="font-size:100px;font-style:italic;line-height:125%;-inkscape-font-specification:Sans Italic">ujpenz.hu</flowPara></flowRoot>    <g
       id="g3856"
       inkscape:export-filename="/home/kuzya/TEST/logo1.png"
       inkscape:export-xdpi="90"
       inkscape:export-ydpi="90">
      <flowRoot
         transform="matrix(1.4364858,0,0,1.4013274,-274.20128,871.94426)"
         style="font-size:75px;font-style:normal;font-weight:normal;line-height:125%;letter-spacing:0px;word-spacing:0px;fill:#217867;fill-opacity:1;stroke:#217867;stroke-opacity:1;font-family:Sans"
         id="flowRoot4182"
         xml:space="preserve"><flowRegion
           id="flowRegion4184"><rect
             style="font-size:75px;fill:#217867;fill-opacity:1;stroke:#217867;stroke-opacity:1"
             y="29.077654"
             x="346.48233"
             height="146.47212"
             width="389.91888"
             id="rect4186" /></flowRegion><flowPara
           style="font-size:75px;fill:#217867;fill-opacity:1;stroke:#217867;stroke-opacity:1"
           id="flowPara4188">UjPenz</flowPara></flowRoot>      <rect
         transform="matrix(0.9862697,-0.16514258,0.15430383,0.98802345,0,0)"
         y="944.33063"
         x="-120.18687"
         height="65.169563"
         width="147.38475"
         id="rect3031"
         style="fill:#ffffff;stroke:#008000;stroke-width:0.50106305" />
      <rect
         transform="matrix(0.9862697,-0.16514258,0.15430383,0.98802345,0,0)"
         y="1001.937"
         x="-108.6602"
         height="7.4706359"
         width="124.84176"
         id="rect3836"
         style="fill:#008000;stroke:#008000;stroke-width:0.57758546" />
      <rect
         transform="matrix(0.9862697,-0.16514258,0.15430383,0.98802345,0,0)"
         y="944.60309"
         x="-108.78156"
         height="7.6394491"
         width="126.44133"
         id="rect3836-6"
         style="fill:#008000;stroke:#008000;stroke-width:0.58780479" />
      <rect
         transform="matrix(0.9862697,-0.16514258,0.15430383,0.98802345,0,0)"
         y="963.9292"
         x="-120.08133"
         height="27.72506"
         width="2.2765794"
         id="rect3866"
         style="fill:#008000;stroke:#008000;stroke-width:0.50106305" />
      <rect
         transform="matrix(0.9862697,-0.16514258,0.15430383,0.98802345,0,0)"
         y="977.72845"
         x="-118.94304"
         height="0.12659846"
         width="0.75885987"
         id="rect3868"
         style="fill:#008000;stroke:#008000;stroke-width:0.50106305" />
      <rect
         transform="matrix(-0.9862697,0.16514258,0.15430383,0.98802345,0,0)"
         y="963.99103"
         x="-27.111794"
         height="27.730518"
         width="2.1408312"
         id="rect3866-3"
         style="fill:#008000;stroke:#008000;stroke-width:0.48594257" />
      <path
         inkscape:connector-curvature="0"
         id="path3908"
         d="m 52.378606,1005.7444 c -1.11891,-3.7496 -4.291999,-7.31889 -8.105294,-9.11741 -1.839776,-0.86771 -4.849941,-1.53059 -7.27668,-1.6024 l -0.500122,-0.0148 -1.543766,-9.88488 -1.543766,-9.88489 1.301013,-0.52643 c 5.982183,-2.42055 10.194716,-8.3762 10.506674,-14.85423 0.03523,-0.73223 0.05734,-1.37449 0.04911,-1.42723 -0.0082,-0.0527 25.382297,-4.34846 56.423435,-9.54604 l 56.43841,-9.45014 0.36926,0.98191 c 2.14309,5.69873 7.85478,9.86288 13.84394,10.09305 l 1.12551,0.0433 1.73136,11.08608 1.73136,11.08608 -0.82018,0.25404 c -0.4511,0.1397 -1.4459,0.59578 -2.21067,1.01344 -4.74972,2.59394 -8.10457,7.93959 -8.07273,12.86319 l 0.006,0.84375 -56.59075,9.47564 -56.590738,9.47557 -0.270847,-0.9076 z"
         style="fill:#c6e9af;stroke:#c6e9af;stroke-width:0.17894571" />
      <path
         transform="matrix(0.61613716,-0.1001668,0.09390824,0.58381773,-18.152408,865.62365)"
         d="m 196.47468,212.67288 a 28.53681,29.546963 0 1 1 -57.07362,0 28.53681,29.546963 0 1 1 57.07362,0 z"
         sodipodi:ry="29.546963"
         sodipodi:rx="28.53681"
         sodipodi:cy="212.67288"
         sodipodi:cx="167.93787"
         id="path3801-5"
         style="fill:#a3d577;fill-opacity:1;stroke:#008000"
         sodipodi:type="arc" />
      <path
         sodipodi:open="true"
         sodipodi:end="10.179996"
         sodipodi:start="5.6441157"
         transform="matrix(0.09697734,0.60289795,-0.54191064,0.08809964,162.69037,768.537)"
         d="m 328.75973,150.00083 a 17.142857,18.928572 0 1 1 -26.24182,-1.68461"
         sodipodi:ry="18.928572"
         sodipodi:rx="17.142857"
         sodipodi:cy="161.29076"
         sodipodi:cx="315"
         id="path3944"
         style="fill:#a3d577;fill-opacity:1;stroke:#eef4d7;stroke-width:4.63192415;stroke-miterlimit:4;stroke-dasharray:none"
         sodipodi:type="arc" />
      <rect
         transform="matrix(0.98704144,-0.16046555,0.15881062,0.98730906,0,0)"
         y="974.62067"
         x="-62.586151"
         height="0.44917402"
         width="14.292404"
         id="rect3946"
         style="fill:#eef4d7;stroke:#eef4d7;stroke-width:1.75184691;stroke-miterlimit:4;stroke-dasharray:none" />
      <rect
         transform="matrix(0.98704144,-0.16046555,0.15881062,0.98730906,0,0)"
         y="978.63281"
         x="-62.501411"
         height="0.44917402"
         width="14.292404"
         id="rect3946-6"
         style="fill:#eef4d7;stroke:#eef4d7;stroke-width:1.75184691;stroke-miterlimit:4;stroke-dasharray:none" />
      <rect
         transform="matrix(0.9862697,-0.16514258,0.15430383,0.98802345,0,0)"
         y="1015.4084"
         x="-115.11139"
         height="0.80215394"
         width="148.06969"
         id="rect4283"
         style="fill:#008000;fill-opacity:1;stroke:#008000;stroke-width:2.76051879;stroke-miterlimit:4;stroke-opacity:1;stroke-dasharray:none" />
      <rect
         transform="matrix(0.9862697,-0.16514258,0.15430383,0.98802345,0,0)"
         y="949.61102"
         x="32.07074"
         height="66.67514"
         width="1.0721583"
         id="rect4285"
         style="fill:#008000;fill-opacity:1;stroke:#008000;stroke-width:2.45949888;stroke-miterlimit:4;stroke-opacity:1;stroke-dasharray:none" />
      <rect
         transform="matrix(0.9862697,-0.16514258,0.15430383,0.98802345,0,0)"
         y="1022.9088"
         x="-109.3861"
         height="0.79611045"
         width="149.83696"
         id="rect4283-8"
         style="fill:#008000;fill-opacity:1;stroke:#008000;stroke-width:2.76646328;stroke-miterlimit:4;stroke-opacity:1;stroke-dasharray:none" />
      <rect
         transform="matrix(0.9862697,-0.16514258,0.15430383,0.98802345,0,0)"
         y="954.95184"
         x="39.575207"
         height="68.822495"
         width="1.0541914"
         id="rect4285-1"
         style="fill:#008000;fill-opacity:1;stroke:#008000;stroke-width:2.47776532;stroke-miterlimit:4;stroke-opacity:1;stroke-dasharray:none" />
      <path
         inkscape:connector-curvature="0"
         id="path3259"
         d="m 37.465933,1016.4576 c -0.05106,-0.2249 -0.61792,-3.824 -1.259691,-7.9982 -0.64177,-4.1741 -1.20934,-7.8009 -1.261265,-8.0595 -0.09089,-0.45279 -0.05316,-0.47759 1.011939,-0.66521 0.608491,-0.10718 1.139002,-0.22753 1.178912,-0.26744 0.03991,-0.0399 -0.07767,-1.00621 -0.261295,-2.14733 l -0.33386,-2.07476 0.816359,5.7e-4 c 1.195136,8.4e-4 3.833237,0.49415 5.369929,1.00415 3.612365,1.19888 6.957673,4.15292 8.670138,7.65602 0.686665,1.4047 1.153253,2.7643 0.950398,2.7695 -0.273923,0.01 -5.215367,0.8908 -5.266471,0.9419 -0.03584,0.036 0.188147,1.6868 0.497759,3.6689 0.309612,1.982 0.51043,3.6562 0.446262,3.7204 -0.06417,0.064 -2.186506,0.4616 -4.716306,0.8833 -2.5298,0.4216 -4.858463,0.8139 -5.174805,0.8716 -0.495196,0.09 -0.588077,0.048 -0.668003,-0.3039 l 0,0 z"
         style="fill:#008000;fill-opacity:1;stroke:#008000;stroke-width:0.89285713;stroke-miterlimit:4;stroke-opacity:1;stroke-dasharray:none" />
      <path
         inkscape:connector-curvature="0"
         id="path3261"
         d="m 33.369514,974.74161 c -0.04833,-0.16501 -0.182851,-0.97054 -0.298932,-1.79006 l -0.211056,-1.49004 -0.825211,0.11893 c -0.453866,0.0654 -0.987439,0.15739 -1.185718,0.20439 -0.344511,0.0817 -0.422388,-0.31307 -1.755159,-8.89674 -0.767059,-4.94022 -1.433449,-9.14806 -1.480866,-9.35076 -0.08217,-0.35124 0.159513,-0.41036 5.148016,-1.25937 2.878827,-0.48995 5.259749,-0.87448 5.290937,-0.85451 0.03119,0.02 0.324891,1.73754 0.652671,3.81681 0.32778,2.07926 0.638847,3.82337 0.69126,3.87578 0.08109,0.0811 3.552279,-0.43352 5.19008,-0.76943 l 0.519288,-0.1065 -0.108775,1.76145 c -0.40136,6.49945 -4.544567,12.12329 -10.877088,14.76417 -0.608555,0.25378 -0.668614,0.25185 -0.749447,-0.0241 l 0,0 z"
         style="fill:#008000;fill-opacity:1;stroke:#008000;stroke-width:0.89285713;stroke-miterlimit:4;stroke-opacity:1;stroke-dasharray:none" />
      <path
         inkscape:connector-curvature="0"
         id="path3263"
         d="m 171.29839,950.24876 c -5.32269,-0.69449 -10.16518,-4.36522 -12.39182,-9.39331 -0.56133,-1.26756 -0.5947,-1.42672 -0.3225,-1.53821 0.16698,-0.0684 1.58669,-0.33362 3.1549,-0.58938 1.56821,-0.25577 2.88881,-0.50256 2.93468,-0.54843 0.0459,-0.0459 -0.1778,-1.78023 -0.49705,-3.85415 -0.31924,-2.07391 -0.51484,-3.82841 -0.43468,-3.89889 0.25128,-0.22091 8.30008,-1.47409 8.44429,-1.31476 0.0754,0.0833 0.75591,4.16925 1.51232,9.07996 0.75641,4.91072 1.41216,9.05972 1.45721,9.22001 0.0657,0.23389 -0.12187,0.32238 -0.95022,0.44815 l -1.03213,0.15673 0.0557,1.20362 0.0557,1.20364 -0.50217,-0.0234 c -0.27619,-0.0129 -0.94413,-0.0811 -1.48431,-0.15156 z"
         style="fill:#008000;fill-opacity:1;stroke:#008000;stroke-width:0.89285713;stroke-miterlimit:4;stroke-opacity:1;stroke-dasharray:none" />
      <path
         inkscape:connector-curvature="0"
         id="path3265"
         d="m 172.01321,994.23774 c 8.9e-4,-0.25538 -1.11014,-7.2922 -1.16028,-7.34874 -0.0256,-0.0289 -1.00957,0.11169 -2.1865,0.3125 -3.00982,0.51352 -2.76758,0.59908 -2.63186,-0.92955 0.50319,-5.66715 4.53025,-10.96462 9.88057,-12.99758 1.04164,-0.39579 0.94438,-0.5143 1.2767,1.55553 l 0.2057,1.28117 0.65578,-0.1117 c 0.36068,-0.0614 0.85346,-0.11564 1.09507,-0.12046 l 0.43928,-0.009 1.29416,8.30228 c 0.71178,4.56625 1.23732,8.35062 1.16786,8.4097 -0.0695,0.0591 -2.17541,0.44924 -4.67987,0.86701 -2.50447,0.41776 -4.73438,0.80059 -4.95536,0.85072 -0.22098,0.0501 -0.40154,0.0222 -0.40125,-0.0621 l 0,0 z"
         style="fill:#008000;fill-opacity:1;stroke:#008000;stroke-width:0.89285713;stroke-miterlimit:4;stroke-opacity:1;stroke-dasharray:none" />
      <path
         transform="translate(0,902.36218)"
         inkscape:connector-curvature="0"
         id="path3057"
         d="m 171.875,47.857142 3.92857,25.714286"
         style="fill:#008000;stroke:#008000;stroke-width:1px;stroke-linecap:butt;stroke-linejoin:miter;stroke-opacity:1;fill-opacity:1" />
      <path
         transform="translate(0,902.36218)"
         inkscape:connector-curvature="0"
         id="path3059"
         d="m 175.82461,70.086792 c -0.23399,-1.317447 -3.27954,-21.524079 -3.24876,-21.554861 0.0219,-0.02191 0.25646,-0.01434 0.52121,0.01684 l 0.48137,0.05668 1.64735,10.548265 c 0.90604,5.801545 1.66312,10.65311 1.68239,10.781253 0.0324,0.215231 0.005,0.236597 -0.3527,0.280315 -0.21327,0.02603 -0.45315,0.07426 -0.53307,0.107186 -0.11239,0.0463 -0.15719,-0.0071 -0.19779,-0.235671 l 0,0 z"
         style="fill:#008000;fill-opacity:1;stroke:#008000;stroke-width:0.44642857;stroke-miterlimit:4;stroke-opacity:1;stroke-dasharray:none" />
      <path
         transform="translate(0,902.36218)"
         inkscape:connector-curvature="0"
         id="path3061"
         d="M 34.821429,72.321428 38.125,93.303571"
         style="fill:#008000;stroke:#008000;stroke-width:1px;stroke-linecap:butt;stroke-linejoin:miter;stroke-opacity:1;fill-opacity:1" />
      <path
         transform="translate(0,902.36218)"
         inkscape:connector-curvature="0"
         id="path3063"
         d="m 36.384011,92.362135 c 0,-0.03468 -0.664876,-4.318974 -1.477503,-9.520656 -0.812626,-5.201681 -1.465286,-9.52104 -1.450354,-9.598576 0.02341,-0.121557 0.32412,-0.240585 0.777765,-0.307857 0.100941,-0.01497 0.431008,1.914045 1.623823,9.490141 0.82342,5.229911 1.518752,9.61942 1.545181,9.754465 l 0.04805,0.245536 -0.533482,0 c -0.293415,0 -0.533482,-0.02837 -0.533482,-0.06305 z"
         style="fill:#008000;fill-opacity:1;stroke:#008000;stroke-width:0.44642857;stroke-miterlimit:4;stroke-opacity:1;stroke-dasharray:none" />
    </g>
  </g>
</svg>
